<mxfile host="app.diagrams.net" modified="2023-05-03T20:26:29.473Z" agent="Mozilla/5.0 (Macintosh; Intel Mac OS X 10_15_7) AppleWebKit/537.36 (KHTML, like Gecko) Chrome/112.0.0.0 Safari/537.36" etag="iQKobyzfRPna44sU4XdG" version="21.2.7" type="github">
  <diagram name="Page-1" id="XvSk5NspSQfEbdZq_5AE">
    <mxGraphModel dx="1026" dy="526" grid="1" gridSize="10" guides="1" tooltips="1" connect="1" arrows="1" fold="1" page="1" pageScale="1" pageWidth="850" pageHeight="1100" math="0" shadow="0">
      <root>
        <mxCell id="0" />
        <mxCell id="1" parent="0" />
        <mxCell id="de7jlUQBzGnA1LHv2Ew5-5" value="" style="edgeStyle=orthogonalEdgeStyle;rounded=1;orthogonalLoop=1;jettySize=auto;html=1;fontFamily=Helvetica;fontSize=12;fontColor=default;fillColor=#d0cee2;strokeColor=#56517e;" parent="1" source="de7jlUQBzGnA1LHv2Ew5-1" target="de7jlUQBzGnA1LHv2Ew5-4" edge="1">
          <mxGeometry relative="1" as="geometry" />
        </mxCell>
        <mxCell id="de7jlUQBzGnA1LHv2Ew5-1" value="v1" style="ellipse;whiteSpace=wrap;html=1;fillColor=#e1d5e7;strokeColor=#9673a6;" parent="1" vertex="1">
          <mxGeometry x="90" y="80" width="50" height="50" as="geometry" />
        </mxCell>
        <mxCell id="de7jlUQBzGnA1LHv2Ew5-7" value="" style="edgeStyle=orthogonalEdgeStyle;rounded=1;orthogonalLoop=1;jettySize=auto;html=1;fontFamily=Helvetica;fontSize=12;fontColor=default;fillColor=#d0cee2;strokeColor=#56517e;" parent="1" source="de7jlUQBzGnA1LHv2Ew5-4" target="de7jlUQBzGnA1LHv2Ew5-6" edge="1">
          <mxGeometry relative="1" as="geometry" />
        </mxCell>
        <mxCell id="de7jlUQBzGnA1LHv2Ew5-4" value="v1.1" style="ellipse;whiteSpace=wrap;html=1;fillColor=#e1d5e7;strokeColor=#9673a6;" parent="1" vertex="1">
          <mxGeometry x="360" y="80" width="50" height="50" as="geometry" />
        </mxCell>
        <mxCell id="de7jlUQBzGnA1LHv2Ew5-6" value="v3" style="ellipse;whiteSpace=wrap;html=1;fillColor=#e1d5e7;strokeColor=#9673a6;" parent="1" vertex="1">
          <mxGeometry x="590" y="80" width="50" height="50" as="geometry" />
        </mxCell>
        <mxCell id="de7jlUQBzGnA1LHv2Ew5-10" value="MAIN" style="rounded=0;whiteSpace=wrap;html=1;strokeColor=#9673a6;fontFamily=Helvetica;fontSize=12;fontColor=default;fillColor=#e1d5e7;" parent="1" vertex="1">
          <mxGeometry x="720" y="85" width="100" height="30" as="geometry" />
        </mxCell>
        <mxCell id="de7jlUQBzGnA1LHv2Ew5-29" value="" style="edgeStyle=orthogonalEdgeStyle;rounded=0;orthogonalLoop=1;jettySize=auto;html=1;fontFamily=Helvetica;fontSize=12;fontColor=default;" parent="1" source="de7jlUQBzGnA1LHv2Ew5-11" target="de7jlUQBzGnA1LHv2Ew5-28" edge="1">
          <mxGeometry relative="1" as="geometry" />
        </mxCell>
        <mxCell id="de7jlUQBzGnA1LHv2Ew5-11" value="Feature 1&amp;nbsp;" style="ellipse;whiteSpace=wrap;html=1;fillColor=#b1ddf0;strokeColor=#10739e;" parent="1" vertex="1">
          <mxGeometry x="110" y="420" width="50" height="50" as="geometry" />
        </mxCell>
        <mxCell id="de7jlUQBzGnA1LHv2Ew5-27" value="" style="edgeStyle=orthogonalEdgeStyle;rounded=0;orthogonalLoop=1;jettySize=auto;html=1;fontFamily=Helvetica;fontSize=12;fontColor=default;" parent="1" source="de7jlUQBzGnA1LHv2Ew5-14" target="de7jlUQBzGnA1LHv2Ew5-11" edge="1">
          <mxGeometry relative="1" as="geometry" />
        </mxCell>
        <mxCell id="de7jlUQBzGnA1LHv2Ew5-46" style="edgeStyle=orthogonalEdgeStyle;rounded=0;orthogonalLoop=1;jettySize=auto;html=1;entryX=0;entryY=0.5;entryDx=0;entryDy=0;fontFamily=Helvetica;fontSize=12;fontColor=default;fillColor=#bac8d3;strokeColor=#23445d;" parent="1" source="de7jlUQBzGnA1LHv2Ew5-14" target="de7jlUQBzGnA1LHv2Ew5-17" edge="1">
          <mxGeometry relative="1" as="geometry" />
        </mxCell>
        <mxCell id="de7jlUQBzGnA1LHv2Ew5-48" style="edgeStyle=orthogonalEdgeStyle;rounded=0;orthogonalLoop=1;jettySize=auto;html=1;entryX=0.5;entryY=0;entryDx=0;entryDy=0;fontFamily=Helvetica;fontSize=12;fontColor=default;fillColor=#bac8d3;strokeColor=#23445d;" parent="1" source="de7jlUQBzGnA1LHv2Ew5-14" target="de7jlUQBzGnA1LHv2Ew5-31" edge="1">
          <mxGeometry relative="1" as="geometry" />
        </mxCell>
        <mxCell id="de7jlUQBzGnA1LHv2Ew5-14" value="v1" style="ellipse;whiteSpace=wrap;html=1;fillColor=#bac8d3;strokeColor=#23445d;" parent="1" vertex="1">
          <mxGeometry x="90" y="290" width="50" height="50" as="geometry" />
        </mxCell>
        <mxCell id="de7jlUQBzGnA1LHv2Ew5-24" value="" style="edgeStyle=orthogonalEdgeStyle;rounded=0;orthogonalLoop=1;jettySize=auto;html=1;fontFamily=Helvetica;fontSize=12;fontColor=default;" parent="1" source="de7jlUQBzGnA1LHv2Ew5-17" target="de7jlUQBzGnA1LHv2Ew5-23" edge="1">
          <mxGeometry relative="1" as="geometry" />
        </mxCell>
        <mxCell id="de7jlUQBzGnA1LHv2Ew5-51" style="edgeStyle=orthogonalEdgeStyle;rounded=0;orthogonalLoop=1;jettySize=auto;html=1;entryX=0.5;entryY=1;entryDx=0;entryDy=0;fontFamily=Helvetica;fontSize=12;fontColor=default;fillColor=#bac8d3;strokeColor=#23445d;" parent="1" source="de7jlUQBzGnA1LHv2Ew5-17" target="de7jlUQBzGnA1LHv2Ew5-40" edge="1">
          <mxGeometry relative="1" as="geometry" />
        </mxCell>
        <mxCell id="de7jlUQBzGnA1LHv2Ew5-17" value="" style="ellipse;whiteSpace=wrap;html=1;fillColor=#bac8d3;strokeColor=#23445d;" parent="1" vertex="1">
          <mxGeometry x="375" y="290" width="50" height="50" as="geometry" />
        </mxCell>
        <mxCell id="de7jlUQBzGnA1LHv2Ew5-18" value="Dev" style="rounded=0;whiteSpace=wrap;html=1;strokeColor=#23445d;fontFamily=Helvetica;fontSize=12;fillColor=#bac8d3;" parent="1" vertex="1">
          <mxGeometry x="720" y="295" width="100" height="30" as="geometry" />
        </mxCell>
        <mxCell id="de7jlUQBzGnA1LHv2Ew5-26" value="" style="edgeStyle=orthogonalEdgeStyle;rounded=0;orthogonalLoop=1;jettySize=auto;html=1;fontFamily=Helvetica;fontSize=12;fontColor=default;fillColor=#bac8d3;strokeColor=#23445d;" parent="1" source="de7jlUQBzGnA1LHv2Ew5-23" target="de7jlUQBzGnA1LHv2Ew5-25" edge="1">
          <mxGeometry relative="1" as="geometry" />
        </mxCell>
        <mxCell id="de7jlUQBzGnA1LHv2Ew5-23" value="" style="ellipse;whiteSpace=wrap;html=1;fillColor=#bac8d3;strokeColor=#23445d;" parent="1" vertex="1">
          <mxGeometry x="470" y="290" width="50" height="50" as="geometry" />
        </mxCell>
        <mxCell id="de7jlUQBzGnA1LHv2Ew5-25" value="" style="ellipse;whiteSpace=wrap;html=1;fillColor=#bac8d3;strokeColor=#23445d;" parent="1" vertex="1">
          <mxGeometry x="600" y="290" width="50" height="50" as="geometry" />
        </mxCell>
        <mxCell id="de7jlUQBzGnA1LHv2Ew5-47" style="edgeStyle=orthogonalEdgeStyle;rounded=0;orthogonalLoop=1;jettySize=auto;html=1;fontFamily=Helvetica;fontSize=12;fontColor=default;" parent="1" source="de7jlUQBzGnA1LHv2Ew5-28" edge="1">
          <mxGeometry relative="1" as="geometry">
            <mxPoint x="205" y="310" as="targetPoint" />
          </mxGeometry>
        </mxCell>
        <mxCell id="de7jlUQBzGnA1LHv2Ew5-28" value="Feature 1" style="ellipse;whiteSpace=wrap;html=1;fillColor=#b1ddf0;strokeColor=#10739e;" parent="1" vertex="1">
          <mxGeometry x="180" y="420" width="50" height="50" as="geometry" />
        </mxCell>
        <mxCell id="de7jlUQBzGnA1LHv2Ew5-34" value="" style="edgeStyle=orthogonalEdgeStyle;rounded=0;orthogonalLoop=1;jettySize=auto;html=1;fontFamily=Helvetica;fontSize=12;fontColor=default;" parent="1" source="de7jlUQBzGnA1LHv2Ew5-31" target="de7jlUQBzGnA1LHv2Ew5-33" edge="1">
          <mxGeometry relative="1" as="geometry" />
        </mxCell>
        <mxCell id="de7jlUQBzGnA1LHv2Ew5-31" value="Feature 2" style="ellipse;whiteSpace=wrap;html=1;fillColor=#b1ddf0;strokeColor=#10739e;" parent="1" vertex="1">
          <mxGeometry x="260" y="420" width="50" height="50" as="geometry" />
        </mxCell>
        <mxCell id="de7jlUQBzGnA1LHv2Ew5-49" style="edgeStyle=orthogonalEdgeStyle;rounded=0;orthogonalLoop=1;jettySize=auto;html=1;fontFamily=Helvetica;fontSize=12;fontColor=default;" parent="1" source="de7jlUQBzGnA1LHv2Ew5-33" edge="1">
          <mxGeometry relative="1" as="geometry">
            <mxPoint x="355" y="310" as="targetPoint" />
          </mxGeometry>
        </mxCell>
        <mxCell id="de7jlUQBzGnA1LHv2Ew5-33" value="Feature 2" style="ellipse;whiteSpace=wrap;html=1;fillColor=#b1ddf0;strokeColor=#10739e;" parent="1" vertex="1">
          <mxGeometry x="330" y="420" width="50" height="50" as="geometry" />
        </mxCell>
        <mxCell id="de7jlUQBzGnA1LHv2Ew5-37" value="Feature Branches" style="rounded=0;whiteSpace=wrap;html=1;strokeColor=#10739e;fontFamily=Helvetica;fontSize=12;fillColor=#b1ddf0;" parent="1" vertex="1">
          <mxGeometry x="720" y="420" width="100" height="30" as="geometry" />
        </mxCell>
        <mxCell id="de7jlUQBzGnA1LHv2Ew5-38" value="&lt;b&gt;&lt;font style=&quot;font-size: 15px;&quot;&gt;Post Launch&lt;/font&gt;&lt;/b&gt;" style="rounded=0;whiteSpace=wrap;html=1;fontFamily=Helvetica;fontSize=12;" parent="1" vertex="1">
          <mxGeometry x="90" y="10" width="120" height="50" as="geometry" />
        </mxCell>
        <mxCell id="de7jlUQBzGnA1LHv2Ew5-43" style="edgeStyle=orthogonalEdgeStyle;rounded=0;orthogonalLoop=1;jettySize=auto;html=1;fontFamily=Helvetica;fontSize=12;fontColor=default;fillColor=#b0e3e6;strokeColor=#0e8088;" parent="1" source="de7jlUQBzGnA1LHv2Ew5-39" target="de7jlUQBzGnA1LHv2Ew5-40" edge="1">
          <mxGeometry relative="1" as="geometry">
            <Array as="points">
              <mxPoint x="440" y="175" />
              <mxPoint x="440" y="175" />
            </Array>
          </mxGeometry>
        </mxCell>
        <mxCell id="de7jlUQBzGnA1LHv2Ew5-54" style="edgeStyle=orthogonalEdgeStyle;rounded=0;orthogonalLoop=1;jettySize=auto;html=1;entryX=0.5;entryY=0;entryDx=0;entryDy=0;fontFamily=Helvetica;fontSize=12;fontColor=default;fillColor=#b0e3e6;strokeColor=#0e8088;" parent="1" source="de7jlUQBzGnA1LHv2Ew5-39" target="de7jlUQBzGnA1LHv2Ew5-53" edge="1">
          <mxGeometry relative="1" as="geometry" />
        </mxCell>
        <mxCell id="de7jlUQBzGnA1LHv2Ew5-60" value="" style="edgeStyle=orthogonalEdgeStyle;rounded=0;orthogonalLoop=1;jettySize=auto;html=1;fontFamily=Helvetica;fontSize=12;fontColor=default;fillColor=#b0e3e6;strokeColor=#0e8088;" parent="1" source="de7jlUQBzGnA1LHv2Ew5-39" target="de7jlUQBzGnA1LHv2Ew5-59" edge="1">
          <mxGeometry relative="1" as="geometry" />
        </mxCell>
        <mxCell id="de7jlUQBzGnA1LHv2Ew5-39" value="v1" style="ellipse;whiteSpace=wrap;html=1;fillColor=#b0e3e6;strokeColor=#0e8088;" parent="1" vertex="1">
          <mxGeometry x="90" y="150" width="50" height="50" as="geometry" />
        </mxCell>
        <mxCell id="de7jlUQBzGnA1LHv2Ew5-44" style="edgeStyle=orthogonalEdgeStyle;rounded=0;orthogonalLoop=1;jettySize=auto;html=1;exitX=1;exitY=0.5;exitDx=0;exitDy=0;fontFamily=Helvetica;fontSize=12;fontColor=default;fillColor=#b0e3e6;strokeColor=#0e8088;" parent="1" source="de7jlUQBzGnA1LHv2Ew5-40" target="de7jlUQBzGnA1LHv2Ew5-41" edge="1">
          <mxGeometry relative="1" as="geometry" />
        </mxCell>
        <mxCell id="de7jlUQBzGnA1LHv2Ew5-40" value="" style="ellipse;whiteSpace=wrap;html=1;fillColor=#b0e3e6;strokeColor=#0e8088;" parent="1" vertex="1">
          <mxGeometry x="490" y="145" width="50" height="50" as="geometry" />
        </mxCell>
        <mxCell id="de7jlUQBzGnA1LHv2Ew5-41" value="" style="ellipse;whiteSpace=wrap;html=1;fillColor=#b0e3e6;strokeColor=#0e8088;" parent="1" vertex="1">
          <mxGeometry x="590" y="145" width="50" height="50" as="geometry" />
        </mxCell>
        <mxCell id="de7jlUQBzGnA1LHv2Ew5-42" value="Test" style="rounded=0;whiteSpace=wrap;html=1;strokeColor=#0e8088;fontFamily=Helvetica;fontSize=12;fillColor=#b0e3e6;" parent="1" vertex="1">
          <mxGeometry x="720" y="155" width="100" height="30" as="geometry" />
        </mxCell>
        <mxCell id="de7jlUQBzGnA1LHv2Ew5-52" value="Hot Fixes" style="rounded=0;whiteSpace=wrap;html=1;strokeColor=#ae4132;fontFamily=Helvetica;fontSize=12;fillColor=#fad9d5;" parent="1" vertex="1">
          <mxGeometry x="720" y="220" width="100" height="30" as="geometry" />
        </mxCell>
        <mxCell id="de7jlUQBzGnA1LHv2Ew5-57" value="" style="edgeStyle=orthogonalEdgeStyle;rounded=0;orthogonalLoop=1;jettySize=auto;html=1;fontFamily=Helvetica;fontSize=12;fontColor=default;fillColor=#fad9d5;strokeColor=#ae4132;" parent="1" source="de7jlUQBzGnA1LHv2Ew5-53" target="de7jlUQBzGnA1LHv2Ew5-56" edge="1">
          <mxGeometry relative="1" as="geometry" />
        </mxCell>
        <mxCell id="de7jlUQBzGnA1LHv2Ew5-53" value="Hot Fix" style="ellipse;whiteSpace=wrap;html=1;fillColor=#fad9d5;strokeColor=#ae4132;" parent="1" vertex="1">
          <mxGeometry x="160" y="230" width="50" height="50" as="geometry" />
        </mxCell>
        <mxCell id="de7jlUQBzGnA1LHv2Ew5-66" style="edgeStyle=orthogonalEdgeStyle;rounded=0;orthogonalLoop=1;jettySize=auto;html=1;fontFamily=Helvetica;fontSize=12;fontColor=default;fillColor=#fad9d5;strokeColor=#ae4132;" parent="1" source="de7jlUQBzGnA1LHv2Ew5-56" target="de7jlUQBzGnA1LHv2Ew5-59" edge="1">
          <mxGeometry relative="1" as="geometry" />
        </mxCell>
        <mxCell id="de7jlUQBzGnA1LHv2Ew5-56" value="Hot Fix" style="ellipse;whiteSpace=wrap;html=1;fillColor=#fad9d5;strokeColor=#ae4132;" parent="1" vertex="1">
          <mxGeometry x="240" y="230" width="50" height="50" as="geometry" />
        </mxCell>
        <mxCell id="de7jlUQBzGnA1LHv2Ew5-63" style="edgeStyle=orthogonalEdgeStyle;rounded=0;orthogonalLoop=1;jettySize=auto;html=1;fontFamily=Helvetica;fontSize=12;fontColor=default;fillColor=#b0e3e6;strokeColor=#0e8088;" parent="1" source="de7jlUQBzGnA1LHv2Ew5-59" target="de7jlUQBzGnA1LHv2Ew5-4" edge="1">
          <mxGeometry relative="1" as="geometry">
            <mxPoint x="325" y="110" as="targetPoint" />
            <Array as="points">
              <mxPoint x="325" y="130" />
              <mxPoint x="320" y="130" />
              <mxPoint x="320" y="105" />
            </Array>
          </mxGeometry>
        </mxCell>
        <mxCell id="de7jlUQBzGnA1LHv2Ew5-65" style="edgeStyle=orthogonalEdgeStyle;rounded=0;orthogonalLoop=1;jettySize=auto;html=1;fontFamily=Helvetica;fontSize=12;fontColor=default;fillColor=#b0e3e6;strokeColor=#0e8088;" parent="1" source="de7jlUQBzGnA1LHv2Ew5-59" target="de7jlUQBzGnA1LHv2Ew5-17" edge="1">
          <mxGeometry relative="1" as="geometry" />
        </mxCell>
        <mxCell id="de7jlUQBzGnA1LHv2Ew5-59" value="" style="ellipse;whiteSpace=wrap;html=1;fillColor=#b0e3e6;strokeColor=#0e8088;" parent="1" vertex="1">
          <mxGeometry x="300" y="150" width="50" height="50" as="geometry" />
        </mxCell>
      </root>
    </mxGraphModel>
  </diagram>
</mxfile>
